<svg width="97" height="32" viewBox="0 0 97 32" fill="none" xmlns="http://www.w3.org/2000/svg">
<path fill-rule="evenodd" clip-rule="evenodd" d="M26.5845 18.41C26.5845 24.9463 21.3005 30.245 14.7824 30.245C8.26432 30.245 2.98035 24.9463 2.98035 18.41C2.98035 11.8737 8.26432 6.575 14.7824 6.575C21.3005 6.575 26.5845 11.8737 26.5845 18.41ZM14.7824 25.615C18.7423 25.615 21.9618 22.3945 21.9618 18.41C21.9618 14.4255 18.7423 11.205 14.7824 11.205C10.8226 11.205 7.60303 14.4255 7.60303 18.41C7.60303 22.3945 10.8226 25.615 14.7824 25.615ZM14.7824 27.615C19.8521 27.615 23.9618 23.4938 23.9618 18.41C23.9618 13.3262 19.8521 9.205 14.7824 9.205C9.71279 9.205 5.60303 13.3262 5.60303 18.41C5.60303 23.4938 9.71279 27.615 14.7824 27.615ZM15.7824 14.465C15.7824 13.9127 15.3347 13.465 14.7824 13.465C14.2301 13.465 13.7824 13.9127 13.7824 14.465V18.41C13.7824 18.9623 14.2301 19.41 14.7824 19.41C15.3347 19.41 15.7824 18.9623 15.7824 18.41V14.465Z" fill="#BB1A27"/>
<path d="M21.9948 9.8625L23.9618 7.89" stroke="#BB1A27" stroke-width="2" stroke-linecap="round"/>
<path d="M12.2491 3.11732C12.3985 2.97752 12.7278 2.85398 13.1858 2.76587C13.6439 2.67776 14.2051 2.63 14.7824 2.63C15.3598 2.63 15.921 2.67776 16.379 2.76587C16.8371 2.85398 17.1663 2.97752 17.3158 3.11732" stroke="#BB1A27" stroke-width="2" stroke-linecap="round"/>
<rect x="15.5" y="18.5" width="81" height="11" rx="2.5" fill="#BB1A27"/>
<path d="M22.429 23.2727C22.4077 23.0928 22.3213 22.9531 22.1697 22.8537C22.0182 22.7543 21.8324 22.7045 21.6122 22.7045C21.4512 22.7045 21.3104 22.7306 21.1896 22.7827C21.0701 22.8348 20.9766 22.9064 20.9091 22.9975C20.8428 23.0887 20.8097 23.1922 20.8097 23.3082C20.8097 23.4053 20.8327 23.4888 20.8789 23.5586C20.9263 23.6272 20.9866 23.6847 21.06 23.7308C21.1334 23.7758 21.2103 23.8131 21.2908 23.8427C21.3713 23.8711 21.4453 23.8942 21.5128 23.9119L21.8821 24.0114C21.9768 24.0362 22.0821 24.0705 22.1982 24.1143C22.3153 24.1581 22.4272 24.2179 22.5337 24.2937C22.6415 24.3683 22.7302 24.4641 22.8001 24.5813C22.8699 24.6985 22.9048 24.8423 22.9048 25.0128C22.9048 25.2093 22.8533 25.3868 22.7504 25.5455C22.6486 25.7041 22.4994 25.8301 22.3029 25.9237C22.1076 26.0172 21.8703 26.0639 21.5909 26.0639C21.3305 26.0639 21.105 26.0219 20.9144 25.9379C20.725 25.8538 20.5759 25.7366 20.467 25.5863C20.3593 25.436 20.2983 25.2614 20.2841 25.0625H20.7386C20.7505 25.1998 20.7966 25.3134 20.8771 25.4034C20.9588 25.4922 21.0618 25.5585 21.1861 25.6023C21.3116 25.6449 21.4465 25.6662 21.5909 25.6662C21.759 25.6662 21.9099 25.639 22.0437 25.5845C22.1774 25.5289 22.2834 25.4519 22.3615 25.3537C22.4396 25.2543 22.4787 25.1383 22.4787 25.0057C22.4787 24.8849 22.445 24.7867 22.3775 24.7109C22.31 24.6352 22.2212 24.5736 22.1112 24.5263C22.0011 24.4789 21.8821 24.4375 21.7543 24.402L21.3068 24.2741C21.0227 24.1925 20.7978 24.0759 20.6321 23.9244C20.4664 23.7728 20.3835 23.5746 20.3835 23.3295C20.3835 23.1259 20.4386 22.9484 20.5487 22.7969C20.6599 22.6442 20.8091 22.5258 20.9961 22.4418C21.1843 22.3565 21.3944 22.3139 21.6264 22.3139C21.8608 22.3139 22.0691 22.3559 22.2514 22.44C22.4337 22.5228 22.5781 22.6365 22.6847 22.7809C22.7924 22.9253 22.8492 23.0893 22.8551 23.2727H22.429ZM24.3746 26.0639C24.2017 26.0639 24.0449 26.0314 23.904 25.9663C23.7632 25.9 23.6513 25.8047 23.5684 25.6804C23.4856 25.5549 23.4442 25.4034 23.4442 25.2259C23.4442 25.0696 23.4749 24.9429 23.5365 24.8459C23.598 24.7476 23.6803 24.6707 23.7833 24.6151C23.8863 24.5594 23.9999 24.518 24.1242 24.4908C24.2497 24.4624 24.3757 24.4399 24.5024 24.4233C24.6681 24.402 24.8025 24.386 24.9055 24.3754C25.0096 24.3635 25.0854 24.344 25.1327 24.3168C25.1813 24.2895 25.2055 24.2422 25.2055 24.1747V24.1605C25.2055 23.9853 25.1576 23.8492 25.0617 23.7521C24.967 23.6551 24.8232 23.6065 24.6302 23.6065C24.4302 23.6065 24.2733 23.6503 24.1597 23.7379C24.0461 23.8255 23.9662 23.919 23.92 24.0185L23.5223 23.8764C23.5933 23.7107 23.688 23.5817 23.8064 23.4893C23.9259 23.3958 24.0561 23.3307 24.197 23.294C24.339 23.2562 24.4787 23.2372 24.616 23.2372C24.7036 23.2372 24.8042 23.2479 24.9179 23.2692C25.0327 23.2893 25.1434 23.3313 25.2499 23.3952C25.3576 23.4592 25.447 23.5556 25.518 23.6847C25.589 23.8137 25.6246 23.9865 25.6246 24.2031V26H25.2055V25.6307H25.1842C25.1558 25.6899 25.1085 25.7532 25.0422 25.8207C24.9759 25.8881 24.8877 25.9455 24.7776 25.9929C24.6675 26.0402 24.5332 26.0639 24.3746 26.0639ZM24.4385 25.6875C24.6042 25.6875 24.7439 25.6549 24.8575 25.5898C24.9723 25.5247 25.0587 25.4407 25.1167 25.3377C25.1759 25.2347 25.2055 25.1264 25.2055 25.0128V24.6293C25.1878 24.6506 25.1487 24.6701 25.0883 24.6879C25.0291 24.7044 24.9605 24.7192 24.8824 24.7322C24.8054 24.7441 24.7303 24.7547 24.6569 24.7642C24.5847 24.7725 24.5261 24.7796 24.4811 24.7855C24.3722 24.7997 24.2704 24.8228 24.1757 24.8548C24.0822 24.8855 24.0064 24.9323 23.9484 24.995C23.8916 25.0566 23.8632 25.1406 23.8632 25.2472C23.8632 25.3928 23.9171 25.5028 24.0248 25.5774C24.1337 25.6508 24.2716 25.6875 24.4385 25.6875ZM26.8084 22.3636V26H26.3894V22.3636H26.8084ZM28.7194 26.0568C28.4566 26.0568 28.2299 25.9988 28.0393 25.8828C27.8499 25.7656 27.7037 25.6023 27.6008 25.3928C27.499 25.1821 27.4481 24.937 27.4481 24.6577C27.4481 24.3783 27.499 24.1321 27.6008 23.919C27.7037 23.7048 27.847 23.5379 28.0305 23.4183C28.2151 23.2976 28.4305 23.2372 28.6768 23.2372C28.8188 23.2372 28.9591 23.2609 29.0976 23.3082C29.2361 23.3556 29.3621 23.4325 29.4758 23.5391C29.5894 23.6444 29.68 23.7841 29.7474 23.9581C29.8149 24.1321 29.8486 24.3464 29.8486 24.6009V24.7784H27.7464V24.4162H29.4225C29.4225 24.2623 29.3917 24.125 29.3302 24.0043C29.2698 23.8835 29.1834 23.7882 29.0709 23.7184C28.9597 23.6486 28.8283 23.6136 28.6768 23.6136C28.5099 23.6136 28.3654 23.6551 28.2435 23.7379C28.1228 23.8196 28.0299 23.9261 27.9648 24.0575C27.8997 24.1889 27.8671 24.3298 27.8671 24.4801V24.7216C27.8671 24.9276 27.9026 25.1022 27.9736 25.2454C28.0458 25.3874 28.1459 25.4957 28.2737 25.5703C28.4015 25.6437 28.5501 25.6804 28.7194 25.6804C28.8295 25.6804 28.9289 25.665 29.0177 25.6342C29.1076 25.6023 29.1852 25.5549 29.2503 25.4922C29.3154 25.4283 29.3657 25.349 29.4012 25.2543L29.806 25.3679C29.7634 25.5052 29.6918 25.6259 29.5912 25.7301C29.4906 25.8331 29.3663 25.9136 29.2183 25.9716C29.0703 26.0284 28.904 26.0568 28.7194 26.0568ZM31.9491 26V22.3636H34.1295V22.7543H32.3895V23.983H33.9662V24.3736H32.3895V26H31.9491ZM34.7976 26V23.2727H35.2024V23.6847H35.2308C35.2805 23.5497 35.3705 23.4402 35.5007 23.3562C35.6309 23.2721 35.7777 23.2301 35.9411 23.2301C35.9718 23.2301 36.0103 23.2307 36.0565 23.2319C36.1026 23.2331 36.1375 23.2348 36.1612 23.2372V23.6634C36.147 23.6598 36.1145 23.6545 36.0636 23.6474C36.0138 23.6391 35.9612 23.6349 35.9055 23.6349C35.773 23.6349 35.6546 23.6628 35.5504 23.7184C35.4474 23.7728 35.3658 23.8486 35.3054 23.9457C35.2462 24.0415 35.2166 24.151 35.2166 24.2741V26H34.7976ZM37.6829 26.0568C37.4367 26.0568 37.2206 25.9982 37.0348 25.881C36.8501 25.7638 36.7057 25.5999 36.6016 25.3892C36.4986 25.1785 36.4471 24.9323 36.4471 24.6506C36.4471 24.3665 36.4986 24.1185 36.6016 23.9066C36.7057 23.6947 36.8501 23.5302 37.0348 23.413C37.2206 23.2958 37.4367 23.2372 37.6829 23.2372C37.9291 23.2372 38.1445 23.2958 38.3292 23.413C38.515 23.5302 38.6594 23.6947 38.7624 23.9066C38.8666 24.1185 38.9187 24.3665 38.9187 24.6506C38.9187 24.9323 38.8666 25.1785 38.7624 25.3892C38.6594 25.5999 38.515 25.7638 38.3292 25.881C38.1445 25.9982 37.9291 26.0568 37.6829 26.0568ZM37.6829 25.6804C37.8699 25.6804 38.0238 25.6325 38.1445 25.5366C38.2653 25.4407 38.3546 25.3146 38.4126 25.1584C38.4706 25.0021 38.4996 24.8329 38.4996 24.6506C38.4996 24.4683 38.4706 24.2984 38.4126 24.141C38.3546 23.9835 38.2653 23.8563 38.1445 23.7592C38.0238 23.6622 37.8699 23.6136 37.6829 23.6136C37.4959 23.6136 37.342 23.6622 37.2212 23.7592C37.1005 23.8563 37.0111 23.9835 36.9531 24.141C36.8951 24.2984 36.8661 24.4683 36.8661 24.6506C36.8661 24.8329 36.8951 25.0021 36.9531 25.1584C37.0111 25.3146 37.1005 25.4407 37.2212 25.5366C37.342 25.6325 37.4959 25.6804 37.6829 25.6804ZM39.5583 26V23.2727H39.9632V23.6989H39.9987C40.0555 23.5533 40.1472 23.4402 40.2739 23.3597C40.4005 23.2781 40.5526 23.2372 40.7302 23.2372C40.9101 23.2372 41.0599 23.2781 41.1794 23.3597C41.3002 23.4402 41.3943 23.5533 41.4617 23.6989H41.4901C41.56 23.558 41.6647 23.4461 41.8044 23.3633C41.9441 23.2792 42.1116 23.2372 42.3069 23.2372C42.5508 23.2372 42.7502 23.3136 42.9053 23.4663C43.0603 23.6178 43.1379 23.8539 43.1379 24.1747V26H42.7188V24.1747C42.7188 23.9735 42.6638 23.8297 42.5537 23.7433C42.4436 23.6568 42.314 23.6136 42.1649 23.6136C41.9731 23.6136 41.8245 23.6716 41.7192 23.7876C41.6138 23.9025 41.5612 24.0481 41.5612 24.2244V26H41.135V24.1321C41.135 23.977 41.0847 23.8522 40.9841 23.7575C40.8835 23.6616 40.7539 23.6136 40.5953 23.6136C40.4864 23.6136 40.3846 23.6426 40.2899 23.7006C40.1963 23.7586 40.1206 23.8391 40.0626 23.9421C40.0058 24.0439 39.9774 24.1617 39.9774 24.2955V26H39.5583ZM45.3671 22.3636H45.8927L47.1285 25.3821H47.1711L48.4069 22.3636H48.9324V26H48.5205V23.2372H48.485L47.3486 26H46.9509L45.8145 23.2372H45.779V26H45.3671V22.3636ZM50.5611 26.0639C50.3883 26.0639 50.2314 26.0314 50.0906 25.9663C49.9497 25.9 49.8378 25.8047 49.755 25.6804C49.6721 25.5549 49.6307 25.4034 49.6307 25.2259C49.6307 25.0696 49.6615 24.9429 49.723 24.8459C49.7846 24.7476 49.8668 24.6707 49.9698 24.6151C50.0728 24.5594 50.1864 24.518 50.3107 24.4908C50.4362 24.4624 50.5623 24.4399 50.6889 24.4233C50.8546 24.402 50.989 24.386 51.092 24.3754C51.1961 24.3635 51.2719 24.344 51.3192 24.3168C51.3678 24.2895 51.392 24.2422 51.392 24.1747V24.1605C51.392 23.9853 51.3441 23.8492 51.2482 23.7521C51.1535 23.6551 51.0097 23.6065 50.8168 23.6065C50.6167 23.6065 50.4599 23.6503 50.3462 23.7379C50.2326 23.8255 50.1527 23.919 50.1065 24.0185L49.7088 23.8764C49.7798 23.7107 49.8745 23.5817 49.9929 23.4893C50.1125 23.3958 50.2427 23.3307 50.3835 23.294C50.5256 23.2562 50.6652 23.2372 50.8026 23.2372C50.8902 23.2372 50.9908 23.2479 51.1044 23.2692C51.2192 23.2893 51.3299 23.3313 51.4364 23.3952C51.5442 23.4592 51.6335 23.5556 51.7045 23.6847C51.7756 23.8137 51.8111 23.9865 51.8111 24.2031V26H51.392V25.6307H51.3707C51.3423 25.6899 51.295 25.7532 51.2287 25.8207C51.1624 25.8881 51.0742 25.9455 50.9641 25.9929C50.854 26.0402 50.7197 26.0639 50.5611 26.0639ZM50.625 25.6875C50.7907 25.6875 50.9304 25.6549 51.044 25.5898C51.1589 25.5247 51.2453 25.4407 51.3033 25.3377C51.3625 25.2347 51.392 25.1264 51.392 25.0128V24.6293C51.3743 24.6506 51.3352 24.6701 51.2749 24.6879C51.2157 24.7044 51.147 24.7192 51.0689 24.7322C50.992 24.7441 50.9168 24.7547 50.8434 24.7642C50.7712 24.7725 50.7126 24.7796 50.6676 24.7855C50.5587 24.7997 50.4569 24.8228 50.3622 24.8548C50.2687 24.8855 50.1929 24.9323 50.1349 24.995C50.0781 25.0566 50.0497 25.1406 50.0497 25.2472C50.0497 25.3928 50.1036 25.5028 50.2113 25.5774C50.3202 25.6508 50.4581 25.6875 50.625 25.6875ZM52.7481 27.0227C52.6771 27.0227 52.6138 27.0168 52.5581 27.005C52.5025 26.9943 52.464 26.9837 52.4427 26.973L52.5493 26.6037C52.6511 26.6297 52.741 26.6392 52.8192 26.6321C52.8973 26.625 52.9665 26.5901 53.0269 26.5273C53.0885 26.4658 53.1447 26.3658 53.1956 26.2273L53.2737 26.0142L52.2652 23.2727H52.7197L53.4726 25.446H53.501L54.2538 23.2727H54.7084L53.5507 26.3977C53.4986 26.5386 53.4341 26.6552 53.3572 26.7475C53.2802 26.841 53.1908 26.9103 53.089 26.9553C52.9884 27.0002 52.8748 27.0227 52.7481 27.0227ZM59.6418 22.3636V26H58.9777L57.3957 23.7113H57.3691V26H56.6002V22.3636H57.2749L58.8445 24.6506H58.8765V22.3636H59.6418ZM63.6186 24.1818C63.6186 24.5784 63.5434 24.9157 63.3931 25.1939C63.244 25.4721 63.0404 25.6845 62.7823 25.8313C62.5254 25.9769 62.2366 26.0497 61.9158 26.0497C61.5927 26.0497 61.3027 25.9763 61.0458 25.8295C60.7889 25.6828 60.5859 25.4703 60.4368 25.1921C60.2876 24.9139 60.2131 24.5772 60.2131 24.1818C60.2131 23.7853 60.2876 23.4479 60.4368 23.1697C60.5859 22.8916 60.7889 22.6797 61.0458 22.5341C61.3027 22.3873 61.5927 22.3139 61.9158 22.3139C62.2366 22.3139 62.5254 22.3873 62.7823 22.5341C63.0404 22.6797 63.244 22.8916 63.3931 23.1697C63.5434 23.4479 63.6186 23.7853 63.6186 24.1818ZM62.8391 24.1818C62.8391 23.925 62.8007 23.7083 62.7237 23.532C62.648 23.3556 62.5408 23.2218 62.4023 23.1307C62.2638 23.0395 62.1017 22.994 61.9158 22.994C61.73 22.994 61.5678 23.0395 61.4293 23.1307C61.2908 23.2218 61.1831 23.3556 61.1062 23.532C61.0304 23.7083 60.9925 23.925 60.9925 24.1818C60.9925 24.4387 61.0304 24.6553 61.1062 24.8317C61.1831 25.008 61.2908 25.1418 61.4293 25.233C61.5678 25.3241 61.73 25.3697 61.9158 25.3697C62.1017 25.3697 62.2638 25.3241 62.4023 25.233C62.5408 25.1418 62.648 25.008 62.7237 24.8317C62.8007 24.6553 62.8391 24.4387 62.8391 24.1818ZM64.8699 26L63.8295 22.3636H64.6693L65.2712 24.8903H65.3014L65.9655 22.3636H66.6846L67.3469 24.8956H67.3788L67.9807 22.3636H68.8206L67.7801 26H67.0308L66.3383 23.6225H66.3099L65.6192 26H64.8699ZM72.2683 23.9865V24.3771H70.6774V23.9865H72.2683ZM74.4687 22.3636H74.9942L76.23 25.3821H76.2726L77.5084 22.3636H78.034V26H77.6221V23.2372H77.5866L76.4502 26H76.0525L74.9161 23.2372H74.8806V26H74.4687V22.3636ZM79.6626 26.0639C79.4898 26.0639 79.333 26.0314 79.1921 25.9663C79.0513 25.9 78.9394 25.8047 78.8565 25.6804C78.7737 25.5549 78.7322 25.4034 78.7322 25.2259C78.7322 25.0696 78.763 24.9429 78.8246 24.8459C78.8861 24.7476 78.9684 24.6707 79.0714 24.6151C79.1744 24.5594 79.288 24.518 79.4123 24.4908C79.5378 24.4624 79.6638 24.4399 79.7905 24.4233C79.9562 24.402 80.0906 24.386 80.1935 24.3754C80.2977 24.3635 80.3735 24.344 80.4208 24.3168C80.4693 24.2895 80.4936 24.2422 80.4936 24.1747V24.1605C80.4936 23.9853 80.4457 23.8492 80.3498 23.7521C80.2551 23.6551 80.1113 23.6065 79.9183 23.6065C79.7183 23.6065 79.5614 23.6503 79.4478 23.7379C79.3342 23.8255 79.2543 23.919 79.2081 24.0185L78.8104 23.8764C78.8814 23.7107 78.9761 23.5817 79.0945 23.4893C79.214 23.3958 79.3442 23.3307 79.4851 23.294C79.6271 23.2562 79.7668 23.2372 79.9041 23.2372C79.9917 23.2372 80.0923 23.2479 80.206 23.2692C80.3208 23.2893 80.4315 23.3313 80.538 23.3952C80.6457 23.4592 80.7351 23.5556 80.8061 23.6847C80.8771 23.8137 80.9126 23.9865 80.9126 24.2031V26H80.4936V25.6307H80.4723C80.4439 25.6899 80.3965 25.7532 80.3303 25.8207C80.264 25.8881 80.1758 25.9455 80.0657 25.9929C79.9556 26.0402 79.8213 26.0639 79.6626 26.0639ZM79.7266 25.6875C79.8923 25.6875 80.032 25.6549 80.1456 25.5898C80.2604 25.5247 80.3468 25.4407 80.4048 25.3377C80.464 25.2347 80.4936 25.1264 80.4936 25.0128V24.6293C80.4759 24.6506 80.4368 24.6701 80.3764 24.6879C80.3172 24.7044 80.2486 24.7192 80.1705 24.7322C80.0935 24.7441 80.0183 24.7547 79.945 24.7642C79.8728 24.7725 79.8142 24.7796 79.7692 24.7855C79.6603 24.7997 79.5585 24.8228 79.4638 24.8548C79.3703 24.8855 79.2945 24.9323 79.2365 24.995C79.1797 25.0566 79.1513 25.1406 79.1513 25.2472C79.1513 25.3928 79.2051 25.5028 79.3129 25.5774C79.4218 25.6508 79.5597 25.6875 79.7266 25.6875ZM81.8497 27.0227C81.7787 27.0227 81.7153 27.0168 81.6597 27.005C81.6041 26.9943 81.5656 26.9837 81.5443 26.973L81.6508 26.6037C81.7526 26.6297 81.8426 26.6392 81.9207 26.6321C81.9988 26.625 82.0681 26.5901 82.1285 26.5273C82.19 26.4658 82.2462 26.3658 82.2971 26.2273L82.3753 26.0142L81.3667 23.2727H81.8213L82.5741 25.446H82.6025L83.3554 23.2727H83.8099L82.6523 26.3977C82.6002 26.5386 82.5357 26.6552 82.4587 26.7475C82.3818 26.841 82.2924 26.9103 82.1906 26.9553C82.09 27.0002 81.9764 27.0227 81.8497 27.0227ZM85.7622 26V25.6804L86.9624 24.3665C87.1033 24.2126 87.2193 24.0788 87.3105 23.9652C87.4016 23.8504 87.4691 23.7427 87.5129 23.642C87.5579 23.5402 87.5803 23.4337 87.5803 23.3224C87.5803 23.1946 87.5496 23.0839 87.488 22.9904C87.4276 22.8969 87.3448 22.8247 87.2394 22.7738C87.1341 22.7229 87.0157 22.6974 86.8843 22.6974C86.7446 22.6974 86.6227 22.7264 86.5186 22.7844C86.4156 22.8413 86.3357 22.9212 86.2789 23.0241C86.2232 23.1271 86.1954 23.2479 86.1954 23.3864H85.7764C85.7764 23.1733 85.8255 22.9863 85.9237 22.8253C86.022 22.6643 86.1557 22.5388 86.325 22.4489C86.4955 22.3589 86.6866 22.3139 86.8985 22.3139C87.1116 22.3139 87.3004 22.3589 87.4649 22.4489C87.6295 22.5388 87.7585 22.6602 87.852 22.8129C87.9455 22.9656 87.9923 23.1354 87.9923 23.3224C87.9923 23.4562 87.968 23.587 87.9195 23.7148C87.8721 23.8415 87.7893 23.983 87.6709 24.1392C87.5537 24.2943 87.391 24.4837 87.1826 24.7074L86.3659 25.581V25.6094H88.0562V26H85.7622ZM89.9969 26.0497C89.8477 26.0473 89.6986 26.0189 89.5494 25.9645C89.4003 25.91 89.2642 25.8183 89.1411 25.6893C89.018 25.5591 88.9191 25.3833 88.8445 25.1619C88.77 24.9394 88.7327 24.66 88.7327 24.3239C88.7327 24.0019 88.7629 23.7166 88.8232 23.468C88.8836 23.2183 88.9712 23.0082 89.086 22.8377C89.2008 22.6661 89.3393 22.5359 89.5015 22.4471C89.6649 22.3583 89.8489 22.3139 90.0537 22.3139C90.2573 22.3139 90.4384 22.3548 90.597 22.4364C90.7568 22.5169 90.887 22.6294 90.9877 22.7738C91.0883 22.9182 91.1534 23.0845 91.183 23.2727H90.7497C90.7095 23.1094 90.6314 22.9738 90.5154 22.8661C90.3994 22.7584 90.2455 22.7045 90.0537 22.7045C89.772 22.7045 89.55 22.8271 89.3879 23.0721C89.2269 23.3171 89.1458 23.661 89.1446 24.1037H89.173C89.2393 24.0031 89.318 23.9173 89.4092 23.8462C89.5015 23.774 89.6033 23.7184 89.7146 23.6793C89.8258 23.6403 89.9436 23.6207 90.0679 23.6207C90.2762 23.6207 90.4668 23.6728 90.6396 23.777C90.8125 23.88 90.951 24.0226 91.0551 24.2049C91.1593 24.386 91.2114 24.5938 91.2114 24.8281C91.2114 25.053 91.1611 25.259 91.0605 25.446C90.9598 25.6319 90.8184 25.7798 90.6361 25.8899C90.455 25.9988 90.2419 26.0521 89.9969 26.0497ZM89.9969 25.6591C90.146 25.6591 90.2798 25.6218 90.3982 25.5472C90.5177 25.4727 90.6118 25.3726 90.6805 25.2472C90.7503 25.1217 90.7852 24.982 90.7852 24.8281C90.7852 24.6778 90.7515 24.5411 90.684 24.418C90.6177 24.2937 90.526 24.1948 90.4088 24.1214C90.2928 24.0481 90.1602 24.0114 90.0111 24.0114C89.8986 24.0114 89.7939 24.0339 89.6968 24.0788C89.5998 24.1226 89.5145 24.183 89.4411 24.2599C89.3689 24.3369 89.3121 24.4251 89.2707 24.5245C89.2293 24.6228 89.2085 24.7263 89.2085 24.8352C89.2085 24.9796 89.2423 25.1146 89.3097 25.2401C89.3784 25.3655 89.4719 25.4667 89.5903 25.5437C89.7098 25.6206 89.8454 25.6591 89.9969 25.6591Z" fill="white"/>
<rect x="15.5" y="18.5" width="81" height="11" rx="2.5" stroke="#151515"/>
</svg>
