<svg width="96" height="32" viewBox="0 0 96 32" fill="none" xmlns="http://www.w3.org/2000/svg">
<path fill-rule="evenodd" clip-rule="evenodd" d="M26.5845 18.41C26.5845 24.9463 21.3005 30.245 14.7824 30.245C8.26432 30.245 2.98035 24.9463 2.98035 18.41C2.98035 11.8737 8.26432 6.575 14.7824 6.575C21.3005 6.575 26.5845 11.8737 26.5845 18.41ZM14.7824 25.615C18.7423 25.615 21.9618 22.3945 21.9618 18.41C21.9618 14.4255 18.7423 11.205 14.7824 11.205C10.8226 11.205 7.60303 14.4255 7.60303 18.41C7.60303 22.3945 10.8226 25.615 14.7824 25.615ZM14.7824 27.615C19.8521 27.615 23.9618 23.4938 23.9618 18.41C23.9618 13.3262 19.8521 9.205 14.7824 9.205C9.71279 9.205 5.60303 13.3262 5.60303 18.41C5.60303 23.4938 9.71279 27.615 14.7824 27.615ZM15.7824 14.465C15.7824 13.9127 15.3347 13.465 14.7824 13.465C14.2301 13.465 13.7824 13.9127 13.7824 14.465V18.41C13.7824 18.9623 14.2301 19.41 14.7824 19.41C15.3347 19.41 15.7824 18.9623 15.7824 18.41V14.465Z" fill="#BB1A27"/>
<path d="M21.9948 9.8625L23.9618 7.89" stroke="#BB1A27" stroke-width="2" stroke-linecap="round"/>
<path d="M12.2491 3.11732C12.3985 2.97752 12.7278 2.85398 13.1858 2.76587C13.6439 2.67776 14.2051 2.63 14.7824 2.63C15.3598 2.63 15.921 2.67776 16.379 2.76587C16.8371 2.85398 17.1663 2.97752 17.3158 3.11732" stroke="#BB1A27" stroke-width="2" stroke-linecap="round"/>
<rect x="15.5" y="18.5" width="80" height="11" rx="2.5" fill="#BB1A27"/>
<path d="M22.429 23.2727C22.4077 23.0928 22.3213 22.9531 22.1697 22.8537C22.0182 22.7543 21.8324 22.7045 21.6122 22.7045C21.4512 22.7045 21.3104 22.7306 21.1896 22.7827C21.0701 22.8348 20.9766 22.9064 20.9091 22.9975C20.8428 23.0887 20.8097 23.1922 20.8097 23.3082C20.8097 23.4053 20.8327 23.4888 20.8789 23.5586C20.9263 23.6272 20.9866 23.6847 21.06 23.7308C21.1334 23.7758 21.2103 23.8131 21.2908 23.8427C21.3713 23.8711 21.4453 23.8942 21.5128 23.9119L21.8821 24.0114C21.9768 24.0362 22.0821 24.0705 22.1982 24.1143C22.3153 24.1581 22.4272 24.2179 22.5337 24.2937C22.6415 24.3683 22.7302 24.4641 22.8001 24.5813C22.8699 24.6985 22.9048 24.8423 22.9048 25.0128C22.9048 25.2093 22.8533 25.3868 22.7504 25.5455C22.6486 25.7041 22.4994 25.8301 22.3029 25.9237C22.1076 26.0172 21.8703 26.0639 21.5909 26.0639C21.3305 26.0639 21.105 26.0219 20.9144 25.9379C20.725 25.8538 20.5759 25.7366 20.467 25.5863C20.3593 25.436 20.2983 25.2614 20.2841 25.0625H20.7386C20.7505 25.1998 20.7966 25.3134 20.8771 25.4034C20.9588 25.4922 21.0618 25.5585 21.1861 25.6023C21.3116 25.6449 21.4465 25.6662 21.5909 25.6662C21.759 25.6662 21.9099 25.639 22.0437 25.5845C22.1774 25.5289 22.2834 25.4519 22.3615 25.3537C22.4396 25.2543 22.4787 25.1383 22.4787 25.0057C22.4787 24.8849 22.445 24.7867 22.3775 24.7109C22.31 24.6352 22.2212 24.5736 22.1112 24.5263C22.0011 24.4789 21.8821 24.4375 21.7543 24.402L21.3068 24.2741C21.0227 24.1925 20.7978 24.0759 20.6321 23.9244C20.4664 23.7728 20.3835 23.5746 20.3835 23.3295C20.3835 23.1259 20.4386 22.9484 20.5487 22.7969C20.6599 22.6442 20.8091 22.5258 20.9961 22.4418C21.1843 22.3565 21.3944 22.3139 21.6264 22.3139C21.8608 22.3139 22.0691 22.3559 22.2514 22.44C22.4337 22.5228 22.5781 22.6365 22.6847 22.7809C22.7924 22.9253 22.8492 23.0893 22.8551 23.2727H22.429ZM24.3746 26.0639C24.2017 26.0639 24.0449 26.0314 23.904 25.9663C23.7632 25.9 23.6513 25.8047 23.5684 25.6804C23.4856 25.5549 23.4442 25.4034 23.4442 25.2259C23.4442 25.0696 23.4749 24.9429 23.5365 24.8459C23.598 24.7476 23.6803 24.6707 23.7833 24.6151C23.8863 24.5594 23.9999 24.518 24.1242 24.4908C24.2497 24.4624 24.3757 24.4399 24.5024 24.4233C24.6681 24.402 24.8025 24.386 24.9055 24.3754C25.0096 24.3635 25.0854 24.344 25.1327 24.3168C25.1813 24.2895 25.2055 24.2422 25.2055 24.1747V24.1605C25.2055 23.9853 25.1576 23.8492 25.0617 23.7521C24.967 23.6551 24.8232 23.6065 24.6302 23.6065C24.4302 23.6065 24.2733 23.6503 24.1597 23.7379C24.0461 23.8255 23.9662 23.919 23.92 24.0185L23.5223 23.8764C23.5933 23.7107 23.688 23.5817 23.8064 23.4893C23.9259 23.3958 24.0561 23.3307 24.197 23.294C24.339 23.2562 24.4787 23.2372 24.616 23.2372C24.7036 23.2372 24.8042 23.2479 24.9179 23.2692C25.0327 23.2893 25.1434 23.3313 25.2499 23.3952C25.3576 23.4592 25.447 23.5556 25.518 23.6847C25.589 23.8137 25.6246 23.9865 25.6246 24.2031V26H25.2055V25.6307H25.1842C25.1558 25.6899 25.1085 25.7532 25.0422 25.8207C24.9759 25.8881 24.8877 25.9455 24.7776 25.9929C24.6675 26.0402 24.5332 26.0639 24.3746 26.0639ZM24.4385 25.6875C24.6042 25.6875 24.7439 25.6549 24.8575 25.5898C24.9723 25.5247 25.0587 25.4407 25.1167 25.3377C25.1759 25.2347 25.2055 25.1264 25.2055 25.0128V24.6293C25.1878 24.6506 25.1487 24.6701 25.0883 24.6879C25.0291 24.7044 24.9605 24.7192 24.8824 24.7322C24.8054 24.7441 24.7303 24.7547 24.6569 24.7642C24.5847 24.7725 24.5261 24.7796 24.4811 24.7855C24.3722 24.7997 24.2704 24.8228 24.1757 24.8548C24.0822 24.8855 24.0064 24.9323 23.9484 24.995C23.8916 25.0566 23.8632 25.1406 23.8632 25.2472C23.8632 25.3928 23.9171 25.5028 24.0248 25.5774C24.1337 25.6508 24.2716 25.6875 24.4385 25.6875ZM26.8084 22.3636V26H26.3894V22.3636H26.8084ZM28.7194 26.0568C28.4566 26.0568 28.2299 25.9988 28.0393 25.8828C27.8499 25.7656 27.7037 25.6023 27.6008 25.3928C27.499 25.1821 27.4481 24.937 27.4481 24.6577C27.4481 24.3783 27.499 24.1321 27.6008 23.919C27.7037 23.7048 27.847 23.5379 28.0305 23.4183C28.2151 23.2976 28.4305 23.2372 28.6768 23.2372C28.8188 23.2372 28.9591 23.2609 29.0976 23.3082C29.2361 23.3556 29.3621 23.4325 29.4758 23.5391C29.5894 23.6444 29.68 23.7841 29.7474 23.9581C29.8149 24.1321 29.8486 24.3464 29.8486 24.6009V24.7784H27.7464V24.4162H29.4225C29.4225 24.2623 29.3917 24.125 29.3302 24.0043C29.2698 23.8835 29.1834 23.7882 29.0709 23.7184C28.9597 23.6486 28.8283 23.6136 28.6768 23.6136C28.5099 23.6136 28.3654 23.6551 28.2435 23.7379C28.1228 23.8196 28.0299 23.9261 27.9648 24.0575C27.8997 24.1889 27.8671 24.3298 27.8671 24.4801V24.7216C27.8671 24.9276 27.9026 25.1022 27.9736 25.2454C28.0458 25.3874 28.1459 25.4957 28.2737 25.5703C28.4015 25.6437 28.5501 25.6804 28.7194 25.6804C28.8295 25.6804 28.9289 25.665 29.0177 25.6342C29.1076 25.6023 29.1852 25.5549 29.2503 25.4922C29.3154 25.4283 29.3657 25.349 29.4012 25.2543L29.806 25.3679C29.7634 25.5052 29.6918 25.6259 29.5912 25.7301C29.4906 25.8331 29.3663 25.9136 29.2183 25.9716C29.0703 26.0284 28.904 26.0568 28.7194 26.0568ZM33.1068 23.2727V23.6278H31.6366V23.2727H33.1068ZM32.077 26V22.8963C32.077 22.7401 32.1137 22.6098 32.1871 22.5057C32.2604 22.4015 32.3557 22.3234 32.4729 22.2713C32.5901 22.2192 32.7138 22.1932 32.844 22.1932C32.947 22.1932 33.031 22.2015 33.0961 22.218C33.1613 22.2346 33.2098 22.25 33.2417 22.2642L33.121 22.6264C33.0997 22.6193 33.0701 22.6104 33.0322 22.5998C32.9955 22.5891 32.947 22.5838 32.8866 22.5838C32.7481 22.5838 32.6481 22.6187 32.5866 22.6886C32.5262 22.7584 32.496 22.8608 32.496 22.9957V26H32.077ZM33.6941 26V23.2727H34.0989V23.6847H34.1273C34.177 23.5497 34.267 23.4402 34.3972 23.3562C34.5274 23.2721 34.6742 23.2301 34.8375 23.2301C34.8683 23.2301 34.9068 23.2307 34.9529 23.2319C34.9991 23.2331 35.034 23.2348 35.0577 23.2372V23.6634C35.0435 23.6598 35.0109 23.6545 34.96 23.6474C34.9103 23.6391 34.8577 23.6349 34.802 23.6349C34.6694 23.6349 34.5511 23.6628 34.4469 23.7184C34.3439 23.7728 34.2623 23.8486 34.2019 23.9457C34.1427 24.0415 34.1131 24.151 34.1131 24.2741V26H33.6941ZM36.5794 26.0568C36.3332 26.0568 36.1171 25.9982 35.9313 25.881C35.7466 25.7638 35.6022 25.5999 35.498 25.3892C35.3951 25.1785 35.3436 24.9323 35.3436 24.6506C35.3436 24.3665 35.3951 24.1185 35.498 23.9066C35.6022 23.6947 35.7466 23.5302 35.9313 23.413C36.1171 23.2958 36.3332 23.2372 36.5794 23.2372C36.8256 23.2372 37.041 23.2958 37.2257 23.413C37.4115 23.5302 37.5559 23.6947 37.6589 23.9066C37.7631 24.1185 37.8152 24.3665 37.8152 24.6506C37.8152 24.9323 37.7631 25.1785 37.6589 25.3892C37.5559 25.5999 37.4115 25.7638 37.2257 25.881C37.041 25.9982 36.8256 26.0568 36.5794 26.0568ZM36.5794 25.6804C36.7664 25.6804 36.9203 25.6325 37.041 25.5366C37.1618 25.4407 37.2511 25.3146 37.3091 25.1584C37.3671 25.0021 37.3961 24.8329 37.3961 24.6506C37.3961 24.4683 37.3671 24.2984 37.3091 24.141C37.2511 23.9835 37.1618 23.8563 37.041 23.7592C36.9203 23.6622 36.7664 23.6136 36.5794 23.6136C36.3923 23.6136 36.2385 23.6622 36.1177 23.7592C35.997 23.8563 35.9076 23.9835 35.8496 24.141C35.7916 24.2984 35.7626 24.4683 35.7626 24.6506C35.7626 24.8329 35.7916 25.0021 35.8496 25.1584C35.9076 25.3146 35.997 25.4407 36.1177 25.5366C36.2385 25.6325 36.3923 25.6804 36.5794 25.6804ZM38.4548 26V23.2727H38.8596V23.6989H38.8952C38.952 23.5533 39.0437 23.4402 39.1704 23.3597C39.297 23.2781 39.4491 23.2372 39.6267 23.2372C39.8066 23.2372 39.9564 23.2781 40.0759 23.3597C40.1966 23.4402 40.2907 23.5533 40.3582 23.6989H40.3866C40.4565 23.558 40.5612 23.4461 40.7009 23.3633C40.8406 23.2792 41.0081 23.2372 41.2034 23.2372C41.4472 23.2372 41.6467 23.3136 41.8018 23.4663C41.9568 23.6178 42.0344 23.8539 42.0344 24.1747V26H41.6153V24.1747C41.6153 23.9735 41.5603 23.8297 41.4502 23.7433C41.3401 23.6568 41.2105 23.6136 41.0613 23.6136C40.8696 23.6136 40.721 23.6716 40.6157 23.7876C40.5103 23.9025 40.4577 24.0481 40.4577 24.2244V26H40.0315V24.1321C40.0315 23.977 39.9812 23.8522 39.8806 23.7575C39.78 23.6616 39.6504 23.6136 39.4917 23.6136C39.3828 23.6136 39.281 23.6426 39.1863 23.7006C39.0928 23.7586 39.0171 23.8391 38.9591 23.9421C38.9023 24.0439 38.8738 24.1617 38.8738 24.2955V26H38.4548ZM47.1808 22.3636V26H46.5168L44.9347 23.7113H44.9081V26H44.1393V22.3636H44.814L46.3836 24.6506H46.4156V22.3636H47.1808ZM51.1577 24.1818C51.1577 24.5784 51.0825 24.9157 50.9322 25.1939C50.783 25.4721 50.5794 25.6845 50.3214 25.8313C50.0645 25.9769 49.7757 26.0497 49.4549 26.0497C49.1317 26.0497 48.8417 25.9763 48.5849 25.8295C48.328 25.6828 48.125 25.4703 47.9759 25.1921C47.8267 24.9139 47.7521 24.5772 47.7521 24.1818C47.7521 23.7853 47.8267 23.4479 47.9759 23.1697C48.125 22.8916 48.328 22.6797 48.5849 22.5341C48.8417 22.3873 49.1317 22.3139 49.4549 22.3139C49.7757 22.3139 50.0645 22.3873 50.3214 22.5341C50.5794 22.6797 50.783 22.8916 50.9322 23.1697C51.0825 23.4479 51.1577 23.7853 51.1577 24.1818ZM50.3782 24.1818C50.3782 23.925 50.3397 23.7083 50.2628 23.532C50.187 23.3556 50.0799 23.2218 49.9414 23.1307C49.8029 23.0395 49.6407 22.994 49.4549 22.994C49.2691 22.994 49.1069 23.0395 48.9684 23.1307C48.8299 23.2218 48.7222 23.3556 48.6452 23.532C48.5695 23.7083 48.5316 23.925 48.5316 24.1818C48.5316 24.4387 48.5695 24.6553 48.6452 24.8317C48.7222 25.008 48.8299 25.1418 48.9684 25.233C49.1069 25.3241 49.2691 25.3697 49.4549 25.3697C49.6407 25.3697 49.8029 25.3241 49.9414 25.233C50.0799 25.1418 50.187 25.008 50.2628 24.8317C50.3397 24.6553 50.3782 24.4387 50.3782 24.1818ZM52.409 26L51.3685 22.3636H52.2084L52.8103 24.8903H52.8405L53.5045 22.3636H54.2236L54.8859 24.8956H54.9179L55.5198 22.3636H56.3596L55.3192 26H54.5699L53.8774 23.6225H53.849L53.1583 26H52.409ZM59.9636 24.8849V23.2727H60.3826V26H59.9636V25.5384H59.9352C59.8713 25.6768 59.7718 25.7946 59.6369 25.8917C59.502 25.9876 59.3315 26.0355 59.1255 26.0355C58.9551 26.0355 58.8036 25.9982 58.671 25.9237C58.5384 25.8479 58.4342 25.7343 58.3585 25.5827C58.2827 25.43 58.2449 25.2377 58.2449 25.0057V23.2727H58.6639V24.9773C58.6639 25.1761 58.7195 25.3348 58.8308 25.4531C58.9432 25.5715 59.0865 25.6307 59.2605 25.6307C59.3646 25.6307 59.4706 25.604 59.5783 25.5508C59.6872 25.4975 59.7783 25.4158 59.8517 25.3058C59.9263 25.1957 59.9636 25.0554 59.9636 24.8849ZM61.5692 24.3594V26H61.1501V23.2727H61.555V23.6989H61.5905C61.6544 23.5604 61.7515 23.4491 61.8817 23.3651C62.0119 23.2798 62.18 23.2372 62.3859 23.2372C62.5706 23.2372 62.7322 23.2751 62.8706 23.3509C63.0091 23.4254 63.1169 23.5391 63.1938 23.6918C63.2707 23.8433 63.3092 24.035 63.3092 24.267V26H62.8902V24.2955C62.8902 24.0812 62.8345 23.9143 62.7233 23.7947C62.612 23.674 62.4593 23.6136 62.2652 23.6136C62.1314 23.6136 62.0119 23.6426 61.9065 23.7006C61.8023 23.7586 61.7201 23.8433 61.6597 23.9545C61.5993 24.0658 61.5692 24.2008 61.5692 24.3594ZM65.261 23.2727V23.6278H63.8477V23.2727H65.261ZM64.2596 22.6193H64.6786V25.2188C64.6786 25.3371 64.6958 25.4259 64.7301 25.4851C64.7656 25.5431 64.8106 25.5821 64.8651 25.6023C64.9207 25.6212 64.9793 25.6307 65.0408 25.6307C65.087 25.6307 65.1249 25.6283 65.1545 25.6236C65.1841 25.6177 65.2077 25.6129 65.2255 25.6094L65.3107 25.9858C65.2823 25.9964 65.2427 26.0071 65.1918 26.0178C65.1409 26.0296 65.0763 26.0355 64.9982 26.0355C64.8799 26.0355 64.7638 26.0101 64.6502 25.9592C64.5378 25.9083 64.4442 25.8307 64.3697 25.7266C64.2963 25.6224 64.2596 25.491 64.2596 25.3324V22.6193ZM65.8913 26V23.2727H66.3104V26H65.8913ZM66.1044 22.8182C66.0227 22.8182 65.9523 22.7904 65.8931 22.7347C65.8351 22.6791 65.8061 22.6122 65.8061 22.5341C65.8061 22.456 65.8351 22.3891 65.8931 22.3335C65.9523 22.2778 66.0227 22.25 66.1044 22.25C66.1861 22.25 66.2559 22.2778 66.3139 22.3335C66.3731 22.3891 66.4027 22.456 66.4027 22.5341C66.4027 22.6122 66.3731 22.6791 66.3139 22.7347C66.2559 22.7904 66.1861 22.8182 66.1044 22.8182ZM67.4969 22.3636V26H67.0779V22.3636H67.4969ZM71.1195 22.3636H71.5598V24.9631C71.5598 25.1951 71.5172 25.3922 71.432 25.5543C71.3468 25.7165 71.2266 25.8396 71.0716 25.9237C70.9165 26.0077 70.7336 26.0497 70.5229 26.0497C70.324 26.0497 70.1471 26.0136 69.992 25.9414C69.8369 25.868 69.715 25.7638 69.6262 25.6289C69.5375 25.494 69.4931 25.3336 69.4931 25.1477H69.9263C69.9263 25.2507 69.9518 25.3407 70.0027 25.4176C70.0547 25.4934 70.1258 25.5526 70.2157 25.5952C70.3057 25.6378 70.4081 25.6591 70.5229 25.6591C70.6496 25.6591 70.7573 25.6325 70.8461 25.5792C70.9348 25.5259 71.0023 25.4478 71.0485 25.3448C71.0958 25.2406 71.1195 25.1134 71.1195 24.9631V22.3636ZM74.1042 24.8849V23.2727H74.5233V26H74.1042V25.5384H74.0758C74.0119 25.6768 73.9125 25.7946 73.7775 25.8917C73.6426 25.9876 73.4721 26.0355 73.2662 26.0355C73.0957 26.0355 72.9442 25.9982 72.8116 25.9237C72.679 25.8479 72.5749 25.7343 72.4991 25.5827C72.4234 25.43 72.3855 25.2377 72.3855 25.0057V23.2727H72.8045V24.9773C72.8045 25.1761 72.8601 25.3348 72.9714 25.4531C73.0839 25.5715 73.2271 25.6307 73.4011 25.6307C73.5053 25.6307 73.6112 25.604 73.7189 25.5508C73.8278 25.4975 73.919 25.4158 73.9924 25.3058C74.0669 25.1957 74.1042 25.0554 74.1042 24.8849ZM75.7098 24.3594V26H75.2907V23.2727H75.6956V23.6989H75.7311C75.795 23.5604 75.8921 23.4491 76.0223 23.3651C76.1525 23.2798 76.3206 23.2372 76.5265 23.2372C76.7112 23.2372 76.8728 23.2751 77.0113 23.3509C77.1498 23.4254 77.2575 23.5391 77.3344 23.6918C77.4114 23.8433 77.4498 24.035 77.4498 24.267V26H77.0308V24.2955C77.0308 24.0812 76.9752 23.9143 76.8639 23.7947C76.7526 23.674 76.5999 23.6136 76.4058 23.6136C76.272 23.6136 76.1525 23.6426 76.0471 23.7006C75.943 23.7586 75.8607 23.8433 75.8003 23.9545C75.74 24.0658 75.7098 24.2008 75.7098 24.3594ZM79.359 26.0568C79.0962 26.0568 78.8696 25.9988 78.679 25.8828C78.4896 25.7656 78.3434 25.6023 78.2404 25.3928C78.1386 25.1821 78.0877 24.937 78.0877 24.6577C78.0877 24.3783 78.1386 24.1321 78.2404 23.919C78.3434 23.7048 78.4866 23.5379 78.6701 23.4183C78.8548 23.2976 79.0702 23.2372 79.3164 23.2372C79.4585 23.2372 79.5987 23.2609 79.7372 23.3082C79.8757 23.3556 80.0018 23.4325 80.1154 23.5391C80.229 23.6444 80.3196 23.7841 80.3871 23.9581C80.4545 24.1321 80.4883 24.3464 80.4883 24.6009V24.7784H78.386V24.4162H80.0621C80.0621 24.2623 80.0314 24.125 79.9698 24.0043C79.9094 23.8835 79.823 23.7882 79.7106 23.7184C79.5993 23.6486 79.4679 23.6136 79.3164 23.6136C79.1495 23.6136 79.0051 23.6551 78.8832 23.7379C78.7624 23.8196 78.6695 23.9261 78.6044 24.0575C78.5393 24.1889 78.5067 24.3298 78.5067 24.4801V24.7216C78.5067 24.9276 78.5423 25.1022 78.6133 25.2454C78.6855 25.3874 78.7855 25.4957 78.9134 25.5703C79.0412 25.6437 79.1897 25.6804 79.359 25.6804C79.4691 25.6804 79.5685 25.665 79.6573 25.6342C79.7473 25.6023 79.8248 25.5549 79.8899 25.4922C79.955 25.4283 80.0053 25.349 80.0408 25.2543L80.4457 25.3679C80.4031 25.5052 80.3314 25.6259 80.2308 25.7301C80.1302 25.8331 80.0059 25.9136 79.858 25.9716C79.71 26.0284 79.5437 26.0568 79.359 26.0568ZM83.6825 22.3139C83.8317 22.3151 83.9808 22.3435 84.13 22.3991C84.2791 22.4548 84.4152 22.5471 84.5384 22.6761C84.6615 22.804 84.7603 22.9786 84.8349 23.1999C84.9094 23.4213 84.9467 23.6989 84.9467 24.0327C84.9467 24.3558 84.916 24.6429 84.8544 24.8938C84.794 25.1436 84.7064 25.3543 84.5916 25.5259C84.478 25.6976 84.3395 25.8278 84.1761 25.9165C84.014 26.0053 83.8305 26.0497 83.6257 26.0497C83.4221 26.0497 83.2404 26.0095 83.0806 25.929C82.922 25.8473 82.7918 25.7343 82.69 25.5898C82.5894 25.4442 82.5249 25.2756 82.4964 25.0838H82.9297C82.9688 25.2507 83.0463 25.3886 83.1623 25.4975C83.2795 25.6052 83.4339 25.6591 83.6257 25.6591C83.9063 25.6591 84.1276 25.5366 84.2898 25.2915C84.4531 25.0465 84.5348 24.7003 84.5348 24.2528H84.5064C84.4401 24.3523 84.3614 24.4381 84.2702 24.5103C84.1791 24.5825 84.0779 24.6381 83.9666 24.6772C83.8554 24.7163 83.737 24.7358 83.6115 24.7358C83.4032 24.7358 83.212 24.6843 83.038 24.5813C82.8652 24.4772 82.7267 24.3345 82.6225 24.1534C82.5195 23.9711 82.468 23.7628 82.468 23.5284C82.468 23.3059 82.5178 23.1023 82.6172 22.9176C82.7178 22.7318 82.8587 22.5838 83.0398 22.4737C83.2221 22.3636 83.4363 22.3104 83.6825 22.3139ZM83.6825 22.7045C83.5334 22.7045 83.399 22.7418 83.2795 22.8164C83.1611 22.8898 83.067 22.9892 82.9972 23.1147C82.9285 23.239 82.8942 23.3769 82.8942 23.5284C82.8942 23.6799 82.9273 23.8178 82.9936 23.9421C83.0611 24.0652 83.1528 24.1635 83.2688 24.2369C83.386 24.3091 83.5192 24.3452 83.6683 24.3452C83.7808 24.3452 83.8855 24.3233 83.9826 24.2795C84.0797 24.2345 84.1643 24.1735 84.2365 24.0966C84.3099 24.0185 84.3673 23.9303 84.4087 23.832C84.4502 23.7326 84.4709 23.629 84.4709 23.5213C84.4709 23.3793 84.4366 23.2461 84.3679 23.1218C84.3004 22.9975 84.2069 22.8969 84.0874 22.82C83.969 22.743 83.834 22.7045 83.6825 22.7045ZM86.8382 23.2727V23.6278H85.4248V23.2727H86.8382ZM85.8367 22.6193H86.2558V25.2188C86.2558 25.3371 86.2729 25.4259 86.3073 25.4851C86.3428 25.5431 86.3878 25.5821 86.4422 25.6023C86.4978 25.6212 86.5564 25.6307 86.618 25.6307C86.6642 25.6307 86.702 25.6283 86.7316 25.6236C86.7612 25.6177 86.7849 25.6129 86.8026 25.6094L86.8879 25.9858C86.8595 25.9964 86.8198 26.0071 86.7689 26.0178C86.718 26.0296 86.6535 26.0355 86.5754 26.0355C86.457 26.0355 86.341 26.0101 86.2274 25.9592C86.1149 25.9083 86.0214 25.8307 85.9468 25.7266C85.8734 25.6224 85.8367 25.491 85.8367 25.3324V22.6193ZM87.9461 24.3594V26H87.5271V22.3636H87.9461V23.6989H87.9816C88.0455 23.558 88.1414 23.4461 88.2693 23.3633C88.3983 23.2792 88.5699 23.2372 88.7842 23.2372C88.97 23.2372 89.1328 23.2745 89.2725 23.3491C89.4121 23.4225 89.5204 23.5355 89.5974 23.6882C89.6755 23.8397 89.7146 24.0327 89.7146 24.267V26H89.2955V24.2955C89.2955 24.0788 89.2393 23.9113 89.1269 23.793C89.0156 23.6734 88.8611 23.6136 88.6634 23.6136C88.5261 23.6136 88.403 23.6426 88.2941 23.7006C88.1864 23.7586 88.1012 23.8433 88.0384 23.9545C87.9769 24.0658 87.9461 24.2008 87.9461 24.3594Z" fill="white"/>
<rect x="15.5" y="18.5" width="80" height="11" rx="2.5" stroke="#151515"/>
</svg>
